# xmcd
# 
# Track frame offsets:
#     150
#     24348
#     42345
#     89121
# 
# Disc length: 1568
# 
# Revision: 2
# Processed by: cddbd v1.5.2PL0 Copyright (c) Steve Scherf et al.
# Submitted via: fre:ac v1.0.31
# 
DISCID=2c061e04
DTITLE=Whitesnake - Good To Be Bad CD 2
DYEAR=2008
DGENRE=Hard Rock
TTITLE0=Summer Rain-Unzipped (Acoustic Bonus)
TTITLE1=All I Want All I Need-Edit 2
TTITLE2=Take Me With You (Live Version)
TTITLE3=Ready to Rock (enhanced video)
EXTD=
EXTT0=
EXTT1=
EXTT2=
EXTT3=
PLAYORDER=
